<svg width="250" height="125" viewBox="0 0 250 125" fill="none" xmlns="http://www.w3.org/2000/svg">
<path fill-rule="evenodd" clip-rule="evenodd" d="M98.1256 36.8192V34.0923V31.3655H109.663H121.201V34.0923V36.8192H116.928H112.655V49.5446V62.2699H109.663H106.672V49.5446V36.8192H102.399H98.1256ZM186.297 33.9409L188.861 33.6061C190.272 33.4218 191.521 33.2513 191.639 33.2273C191.757 33.2031 191.853 34.6832 191.853 36.5162V39.8491H194.417H196.981V42.2729V44.6968L194.345 44.6962L191.71 44.6959L191.872 50.2257C191.961 53.2673 192.057 55.7846 192.086 55.8197C192.935 56.8653 193.513 57.1192 195.04 57.1192H196.696V59.6549V62.1906L195.627 62.3784C192.279 62.9671 189.643 62.3608 188.017 60.6284C186.343 58.8456 186.155 57.8521 186.155 50.7971V44.6968H184.292H182.428L182.511 42.2163L182.594 39.7357L184.364 39.8133L186.134 39.8909L186.216 36.9159L186.297 33.9409ZM129.072 42.093C129.936 40.7386 130.412 40.2869 131.6 39.6936C132.07 39.4588 133.256 39.2616 134.235 39.2549L136.015 39.2431V42.3878V45.5325L134.758 45.2473C132.176 44.6614 129.698 46.2005 128.95 48.855C128.733 49.6255 128.608 52.299 128.608 56.1696V62.2699H125.617H122.626V51.0795V39.8894L125.475 39.7933L128.325 39.6976L128.324 41.4822L128.323 43.2664L129.072 42.093ZM162.796 46.1811C162.792 43.1831 164.485 40.8804 167.604 39.6448C168.289 39.3734 169.59 39.2682 171.483 39.331C175.677 39.47 178.115 40.805 179.347 43.6364C180.234 45.6733 180.141 45.836 177.965 46.0469C176.907 46.1493 175.689 46.2932 175.258 46.3666C174.649 46.4699 174.475 46.379 174.475 45.9585C174.475 44.7195 172.697 43.4849 170.914 43.4849C168.763 43.4849 167.72 44.5965 168.277 46.2951C168.647 47.4246 169.615 47.9027 172.668 48.466C174.076 48.7259 175.813 49.1507 176.529 49.4101C178.126 49.9891 179.79 51.7003 180.17 53.1546C180.86 55.7961 180.238 58.8683 178.711 60.3614C178.336 60.7284 177.389 61.3419 176.608 61.7249C175.356 62.3387 174.747 62.4211 171.483 62.4199C168.224 62.4187 167.609 62.3348 166.355 61.7218C164.047 60.5935 162.708 58.9304 162.205 56.569L162.188 56.4866C162.108 56.1152 162.055 55.871 162.138 55.7014C162.297 55.3756 162.955 55.3254 164.877 55.1786L165.1 55.1616L167.549 54.9744L167.809 55.9403C168.289 57.7212 170.471 58.7774 172.753 58.3336C174.721 57.9506 175.555 56.5781 174.768 55.015C174.421 54.326 172.748 53.6009 170.903 53.3398C165.356 52.5541 162.802 50.2987 162.796 46.1811ZM141.28 60.3302C139.068 57.973 138.864 56.8832 138.864 47.4037L138.863 39.6976L141.687 39.7927L144.511 39.8881L144.611 47.2158C144.72 55.0889 144.854 55.8479 146.333 56.9492C147.137 57.5485 149.459 57.5646 150.525 56.9786C151.641 56.3648 152.745 54.8917 153.096 53.5497C153.258 52.9301 153.391 49.5597 153.392 46.0603L153.393 39.6976L156.171 39.7497L158.948 39.8015L159.023 51.0359L159.098 62.2699H156.245H153.393V60.8498V59.4298L152.61 60.2106C150.615 62.1987 147.242 63.0265 144.248 62.2627C143.045 61.9557 142.427 61.5534 141.28 60.3302ZM172.765 101.355V85.1453V68.9356H175.614H178.463L178.477 78.1009L178.492 87.2662L182.394 82.9456L186.297 78.6248L189.787 78.6281C191.706 78.6296 193.277 78.7099 193.277 78.806C193.277 78.902 191.469 81.0702 189.258 83.6237C187.048 86.1773 185.221 88.3215 185.198 88.3884C185.176 88.4551 187.049 91.3365 189.36 94.7908C191.671 98.2452 193.562 101.135 193.562 101.213C193.562 101.291 192.026 101.355 190.148 101.355H186.734L183.854 96.7751L180.974 92.1952L179.718 93.5053L178.463 94.8154V98.0852V101.355H175.614H172.765ZM100.12 86.1049C100.12 77.717 100.205 70.7635 100.31 70.6526C100.414 70.5414 101.792 70.4557 103.372 70.4617L106.245 70.4729L110.351 78.3391L114.458 86.2048L118.509 78.4036L122.56 70.602L125.399 70.5163L128.238 70.4302L128.422 73.5461C128.524 75.2598 128.613 82.1836 128.621 88.9326L128.634 101.203L125.773 101.29L122.911 101.376V91.1529V80.9296L119.393 87.5822L115.875 94.2348L114.478 94.3182L113.082 94.4012L109.521 87.7555L105.96 81.1099L105.885 91.2326L105.81 101.355H102.965H100.12V86.1049ZM220.272 72.8511C220.388 72.8383 221.637 72.6681 223.047 72.4723L225.611 72.117L225.692 75.374L225.773 78.6311H228.47H231.167V81.2065V83.7819H228.46H225.754L225.756 88.4024C225.758 95.3489 226.221 96.3612 229.306 96.157L230.883 96.0528L230.882 98.6854L230.882 101.318L229.573 101.526C228.853 101.641 227.397 101.669 226.337 101.589C224.014 101.412 222.383 100.535 221.306 98.882C220.363 97.435 219.989 94.0146 220.113 87.974L220.199 83.8052L218.347 83.7176L216.495 83.6304L216.413 81.1308L216.33 78.6311H218.269H220.209L220.134 75.7528C220.093 74.1697 220.155 72.8641 220.272 72.8511ZM134.017 83.4789C134.64 81.095 136.925 79.1744 140.004 78.4463C142.11 77.9485 143.204 77.9543 145.52 78.4763C147.807 78.9917 149.685 80.0739 150.56 81.381C151.762 83.1762 151.969 84.7141 152.156 93.2495L152.335 101.378L149.522 101.291L146.708 101.203L146.797 99.8401L146.886 98.4766L145.795 99.5998C144.391 101.045 142.716 101.659 140.181 101.655C136.817 101.65 134.046 99.7943 133.165 96.9578C132.609 95.1665 132.913 92.2482 133.804 90.8157C135.075 88.7736 136.948 88.0152 141.489 87.7034C143.571 87.5607 145.626 87.438 146.057 87.4307C147.006 87.415 147.057 86.8935 146.287 85.0895C145.655 83.6086 144.524 82.8729 142.88 82.8729C141.371 82.8729 140.338 83.4065 139.832 84.4469C139.422 85.2919 139.403 85.2968 136.578 85.2968L136.425 85.2968C134.748 85.2971 134.045 85.2972 133.841 84.9578C133.693 84.7135 133.803 84.2932 133.993 83.5703L134.017 83.4789ZM162.598 81.5307C163.548 79.8928 164.728 78.8559 166.081 78.4696C167.783 77.9836 167.896 77.974 169.026 78.2145L169.917 78.4039V81.3671V84.3303L168.232 84.1679C165.789 83.9324 164.225 84.7854 163.239 86.8896C162.525 88.4127 162.51 88.5827 162.51 94.9002V101.355H159.518H156.527V89.9931V78.6311H159.376H162.225L162.241 80.3733C162.256 81.8506 162.31 82.0264 162.598 81.5307ZM194.043 88.1597C194.771 82.7887 197.856 79.1423 202.357 78.3333C204.339 77.977 204.921 77.9955 207.079 78.4814C211.832 79.5525 214.641 83.3126 215.104 89.2259L215.295 91.6595H207.54H199.784L199.978 92.6442C200.084 93.1859 200.389 94.0373 200.656 94.5369C202.167 97.3595 206.412 97.8434 208.547 95.4359C209.429 94.4403 209.485 94.4236 212.114 94.3645C214.779 94.3045 214.786 94.3064 214.685 95.0253C214.399 97.0705 212.274 99.6877 210.055 100.729C206.997 102.164 202.608 102.102 199.651 100.583C197.927 99.6965 195.729 97.3071 194.989 95.5125C194.018 93.1614 193.7 90.6902 194.043 88.1597ZM199.989 86.736C200.509 84.9423 201.509 83.7116 202.963 83.0753C203.866 82.6805 206.664 83.0559 207.454 83.6779C208.433 84.4493 209.515 86.1182 209.515 86.8566C209.515 87.3807 209.196 87.4177 204.653 87.4177H199.791L199.989 86.736ZM139.137 95.7155C138.47 93.8504 139.101 92.5296 141.001 91.8128C141.627 91.5765 143.215 91.3771 144.528 91.3698L146.915 91.3565L146.77 92.7254C146.586 94.4588 145.472 96.2664 144.188 96.9144C142.247 97.8937 139.699 97.2892 139.137 95.7155Z" fill="#F9FFFA"/>
<path fill-rule="evenodd" clip-rule="evenodd" d="M48.3589 19.493C44.0298 21.051 40.3211 24.5774 38.3386 29.0213C37.0578 31.8924 36.6561 33.4779 36.4028 36.6647L36.2222 38.9401H31.4393C28.7429 38.9401 26.3068 39.081 25.8547 39.2634C24.8587 39.6645 23.8426 40.6523 23.3141 41.7321C22.8022 42.7789 17.9702 94.4894 18.1867 96.6063C18.5283 99.9455 20.7367 103.233 23.8414 105.024L25.6225 106.051H53.5412H81.4599L82.8156 105.379C84.4945 104.547 86.8231 102.266 87.7954 100.501C88.9788 98.3536 89.3255 96.1918 88.9948 93.0229C88.8384 91.5231 87.7507 79.5931 86.5781 66.5117C85.4055 53.4304 84.3087 42.366 84.1409 41.9242C83.7364 40.8601 82.8285 39.9833 81.5362 39.4091C80.73 39.0507 79.3831 38.9401 75.8237 38.9401H71.1664L70.8317 35.9081C70.2423 30.5641 68.3179 26.4862 64.7554 23.0316C61.7242 20.0926 57.9555 18.6359 53.4102 18.6465C51.202 18.6519 50.2548 18.8104 48.3589 19.493ZM42.8988 30.7238C44.6044 27.3209 48.2885 24.3983 51.6268 23.8C53.5609 23.4536 53.6899 23.4539 55.5542 23.8163C60.5841 24.7934 64.5625 28.9328 65.789 34.4653C66.0206 35.51 66.212 36.9201 66.2143 37.5991L66.2186 38.8335L53.6836 38.8925L41.1487 38.9516L41.153 37.6582C41.1593 35.6924 41.9171 32.6832 42.8988 30.7238ZM27.6235 44.3326C27.7247 44.0521 28.021 43.7621 28.2819 43.6888C28.5429 43.6152 40.0605 43.5394 53.8771 43.52C76.3627 43.4885 79.0446 43.5349 79.4455 43.9609C79.6916 44.223 79.9001 44.4614 79.9087 44.4911C79.9335 44.5781 82.3379 71.0298 83.4971 83.9673C84.5449 95.6625 84.552 95.8361 84.0452 97.2471C83.4016 99.0396 81.9373 100.622 80.5394 101.034C79.8281 101.245 70.6912 101.352 53.4609 101.353C30.6311 101.355 27.327 101.298 26.4008 100.886C24.1257 99.8752 22.9161 97.8401 22.9161 95.0229C22.9161 92.879 27.3555 45.0759 27.6235 44.3326Z" fill="#F9FFFA"/>
<path d="M49.2924 71.5867C48.8471 73.045 48.4224 74.4084 48.3483 74.6166C48.2489 74.8974 48.7375 74.9953 50.2388 74.9953C51.3524 74.9953 52.2638 74.8932 52.2638 74.7681C52.2646 74.2606 50.461 68.9356 50.2884 68.9356C50.1858 68.9356 49.7374 70.1288 49.2924 71.5867Z" fill="#4CAF50"/>
<path fill-rule="evenodd" clip-rule="evenodd" d="M50.8389 52.4356C47.6308 54.2135 43.7954 55.5109 40.5338 55.9215C36.3121 56.4529 36.1277 56.4962 35.644 57.0646C34.9663 57.8612 34.9045 73.8661 35.5671 76.8862C37.2337 84.4793 42.363 90.9456 49.6449 94.6339C52.7308 96.197 54.6632 96.1948 57.7536 94.6254C64.9917 90.9496 69.7743 85.0477 71.697 77.4192C72.2126 75.374 72.2668 74.2693 72.2394 66.3705C72.2032 55.9115 72.4403 56.5859 68.6584 56.1784C64.2037 55.6982 61.0511 54.6865 56.6141 52.3132C55.325 51.6236 54.043 51.067 53.7652 51.0764C53.4875 51.0858 52.1707 51.6976 50.8389 52.4356ZM42.2408 81.4243C41.8294 80.9868 47.7106 63.9094 48.498 63.2546C48.7487 63.0465 49.6184 62.8759 50.4312 62.8759C51.2659 62.8759 52.0368 63.0407 52.2035 63.2546C52.9656 64.2336 58.6231 80.6653 58.4054 81.2683C58.2938 81.5779 57.8154 81.667 56.6206 81.6003C54.8751 81.5031 54.9005 81.5267 53.9074 79.0856L53.5376 78.1766H50.3079H47.0781L46.4494 79.843L45.8209 81.5095L44.1575 81.6016C43.2427 81.6525 42.3801 81.5725 42.2408 81.4243ZM60.3825 81.5095L60.307 72.3302L60.2318 63.151L62.1588 63.2407L64.086 63.3304V72.4199V81.5095H62.2343H60.3825Z" fill="#4CAF50"/>
</svg>
